<?xml version="1.0" encoding="iso-8859-1"?>
<!-- Uploaded to: SVG Repo, www.svgrepo.com, Generator: SVG Repo Mixer Tools -->
<svg height="800px" width="800px" version="1.1" id="Layer_1" xmlns="http://www.w3.org/2000/svg" xmlns:xlink="http://www.w3.org/1999/xlink" 
	 viewBox="0 0 512.002 512.002" xml:space="preserve">
<path style="fill:#F1CB30;" d="M256,0.001c-141.158,0-256,114.842-256,256s114.842,256,256,256s256-114.842,256-256
	S397.158,0.001,256,0.001z"/>
<path style="fill:#FF3501;" d="M355.297,325.819h-23.273h-46.545h-23.273H256h-17.067v23.273c0,1.148,0.031,2.29,0.088,3.426
	c0.019,0.396,0.054,0.787,0.082,1.182c0.047,0.734,0.095,1.465,0.166,2.192c0.045,0.481,0.109,0.954,0.164,1.432
	c0.074,0.63,0.15,1.26,0.24,1.885c0.076,0.524,0.166,1.043,0.254,1.564c0.095,0.562,0.191,1.125,0.299,1.682
	c0.109,0.559,0.227,1.116,0.351,1.668c0.11,0.503,0.227,1.005,0.348,1.503c0.146,0.591,0.295,1.178,0.455,1.763
	c0.121,0.442,0.247,0.881,0.375,1.319c0.185,0.627,0.372,1.255,0.573,1.873c0.118,0.363,0.244,0.723,0.366,1.081
	c0.236,0.683,0.473,1.364,0.728,2.037c0.092,0.242,0.188,0.479,0.282,0.718c2.932,7.488,7.112,14.358,12.294,20.336
	c6.369,7.348,14.244,13.357,23.136,17.549c0.191,0.088,0.385,0.172,0.576,0.261c0.88,0.405,1.77,0.794,2.67,1.164
	c0.296,0.121,0.597,0.236,0.897,0.355c0.804,0.315,1.614,0.619,2.431,0.908c0.365,0.129,0.735,0.251,1.103,0.374
	c0.765,0.253,1.534,0.493,2.31,0.721c0.413,0.121,0.824,0.239,1.24,0.355c0.748,0.203,1.5,0.393,2.257,0.572
	c0.442,0.105,0.884,0.213,1.331,0.309c0.745,0.16,1.496,0.303,2.248,0.441c0.462,0.084,0.922,0.172,1.387,0.247
	c0.763,0.124,1.536,0.225,2.307,0.324c0.456,0.057,0.911,0.124,1.368,0.172c0.838,0.092,1.683,0.152,2.531,0.213
	c0.397,0.028,0.791,0.07,1.192,0.092c1.247,0.067,2.501,0.104,3.766,0.104c38.499,0,69.818-31.319,69.818-69.818v-46.545
	C378.57,315.399,368.15,325.819,355.297,325.819z"/>
<path style="fill:#DF6246;" d="M355.297,279.273h-93.091H256h-99.297c-12.853,0-23.273,10.42-23.273,23.273
	s10.42,23.273,23.273,23.273h82.23H256h6.206h23.273h46.545h23.273c12.853,0,23.273-10.42,23.273-23.273
	S368.15,279.273,355.297,279.273z"/>
<g>
	<path style="fill:#57575C;" d="M355.297,175.322c-8.177,0-16.167,3.305-21.938,9.092c-5.773,5.772-9.092,13.762-9.092,21.938
		c0,8.163,3.32,16.168,9.092,21.94c5.772,5.787,13.777,9.09,21.938,9.09c8.161,0,16.167-3.305,21.938-9.09
		c5.773-5.772,9.092-13.777,9.092-21.94c0-8.176-3.32-16.167-9.092-21.938C371.464,178.627,363.473,175.322,355.297,175.322z"/>
	<path style="fill:#57575C;" d="M156.703,237.383c8.176,0,16.167-3.32,21.938-9.09c5.773-5.772,9.092-13.762,9.092-21.94
		c0-8.176-3.32-16.167-9.092-21.938c-5.772-5.787-13.777-9.092-21.938-9.092c-8.161,0-16.167,3.305-21.938,9.092
		c-5.772,5.772-9.092,13.762-9.092,21.938c0,8.176,3.32,16.168,9.092,21.94C140.536,234.062,148.525,237.383,156.703,237.383z"/>
</g>
<g>
	<path style="fill:#F1CB30;" d="M256,0.001v279.273h6.206h93.091c12.853,0,23.273,10.42,23.273,23.273v46.545
		c0,38.499-31.319,69.818-69.818,69.818c-1.263,0-2.518-0.037-3.766-0.104c-0.402-0.022-0.796-0.064-1.192-0.092
		c-0.847-0.061-1.693-0.121-2.531-0.213c-0.458-0.048-0.912-0.115-1.368-0.172c-0.771-0.101-1.544-0.2-2.307-0.324
		c-0.465-0.074-0.925-0.163-1.387-0.247c-0.752-0.138-1.505-0.281-2.248-0.441c-0.447-0.098-0.889-0.203-1.331-0.309
		c-0.757-0.178-1.51-0.369-2.257-0.573c-0.416-0.115-0.827-0.233-1.24-0.355c-0.776-0.227-1.545-0.469-2.31-0.721
		c-0.368-0.124-0.739-0.245-1.103-0.374c-0.818-0.287-1.629-0.593-2.431-0.908c-0.299-0.118-0.6-0.233-0.897-0.355
		c-0.9-0.369-1.787-0.76-2.67-1.164c-0.191-0.088-0.385-0.172-0.576-0.261c-8.896-4.186-16.767-10.198-23.136-17.549v117.251
		c141.158,0,256-114.842,256-256S397.158,0.001,256,0.001z M377.235,228.292c-5.772,5.786-13.777,9.09-21.938,9.09
		c-8.161,0-16.167-3.305-21.938-9.09c-5.773-5.772-9.092-13.777-9.092-21.94c0-8.176,3.32-16.167,9.092-21.938
		c5.772-5.787,13.76-9.092,21.938-9.092c8.176,0,16.167,3.305,21.938,9.092c5.773,5.772,9.092,13.762,9.092,21.938
		C386.327,214.515,383.007,222.521,377.235,228.292z"/>
	<path style="fill:#F1CB30;" d="M303.794,418.714c-0.847-0.061-1.693-0.121-2.531-0.213
		C302.102,418.593,302.947,418.654,303.794,418.714z"/>
	<path style="fill:#F1CB30;" d="M296.201,417.759c-0.752-0.138-1.505-0.281-2.248-0.441
		C294.696,417.478,295.449,417.621,296.201,417.759z"/>
	<path style="fill:#F1CB30;" d="M299.895,418.33c-0.771-0.101-1.544-0.2-2.307-0.324
		C298.352,418.129,299.124,418.229,299.895,418.33z"/>
	<path style="fill:#F1CB30;" d="M256,394.751L256,394.751c6.369,7.35,14.24,13.362,23.136,17.549
		C270.244,408.108,262.369,402.099,256,394.751z"/>
	<path style="fill:#F1CB30;" d="M292.622,417.008c-0.757-0.18-1.51-0.369-2.257-0.572
		C291.112,416.638,291.863,416.829,292.622,417.008z"/>
	<path style="fill:#F1CB30;" d="M308.751,418.91c-1.263,0-2.518-0.037-3.766-0.104C306.233,418.873,307.489,418.91,308.751,418.91z"
		/>
	<path style="fill:#F1CB30;" d="M289.125,416.081c-0.776-0.227-1.545-0.469-2.31-0.721
		C287.58,415.613,288.349,415.853,289.125,416.081z"/>
	<path style="fill:#F1CB30;" d="M282.382,413.723c-0.9-0.369-1.789-0.759-2.67-1.164
		C280.595,412.963,281.482,413.354,282.382,413.723z"/>
	<path style="fill:#F1CB30;" d="M285.71,414.986c-0.818-0.289-1.629-0.593-2.431-0.908
		C284.082,414.393,284.892,414.699,285.71,414.986z"/>
</g>
<g>
	<path style="fill:#E69629;" d="M243.706,374.414c-0.095-0.239-0.191-0.476-0.282-0.718c-0.254-0.673-0.492-1.353-0.728-2.037
		c-0.123-0.358-0.248-0.718-0.366-1.081c-0.2-0.617-0.388-1.244-0.573-1.873c-0.129-0.436-0.254-0.875-0.375-1.319
		c-0.158-0.585-0.309-1.171-0.455-1.763c-0.121-0.498-0.236-1.001-0.348-1.503c-0.123-0.552-0.24-1.109-0.351-1.668
		c-0.109-0.557-0.206-1.12-0.299-1.682c-0.088-0.521-0.178-1.04-0.254-1.564c-0.092-0.625-0.166-1.255-0.24-1.885
		c-0.056-0.478-0.119-0.951-0.164-1.432c-0.071-0.728-0.119-1.458-0.166-2.192c-0.028-0.396-0.064-0.787-0.082-1.182
		c-0.057-1.133-0.088-2.275-0.088-3.423v-23.273h-82.23c-12.853,0-23.273-10.42-23.273-23.273s10.42-23.273,23.273-23.273H256V0.001
		c-141.158,0-256,114.842-256,256s114.842,256,256,256v-117.25C250.816,388.77,246.633,381.906,243.706,374.414z M134.765,184.414
		c5.772-5.787,13.777-9.092,21.938-9.092c8.161,0,16.167,3.305,21.938,9.092c5.773,5.772,9.092,13.762,9.092,21.938
		c0,8.176-3.32,16.168-9.092,21.94c-5.772,5.77-13.762,9.09-21.938,9.09c-8.178,0-16.167-3.32-21.938-9.09
		c-5.772-5.772-9.092-13.763-9.092-21.94C125.673,198.176,128.993,190.185,134.765,184.414z"/>
	<path style="fill:#E69629;" d="M243.425,373.696c-0.254-0.673-0.49-1.353-0.728-2.037
		C242.932,372.343,243.169,373.024,243.425,373.696z"/>
	<path style="fill:#E69629;" d="M240.579,364.123c-0.123-0.552-0.24-1.109-0.351-1.668
		C240.339,363.013,240.457,363.569,240.579,364.123z"/>
	<path style="fill:#E69629;" d="M239.931,360.771c-0.09-0.521-0.178-1.04-0.254-1.564
		C239.751,359.732,239.843,360.25,239.931,360.771z"/>
	<path style="fill:#E69629;" d="M241.382,367.387c-0.158-0.585-0.309-1.171-0.455-1.763
		C241.073,366.216,241.225,366.802,241.382,367.387z"/>
	<path style="fill:#E69629;" d="M239.434,357.324c-0.056-0.478-0.119-0.951-0.164-1.432
		C239.315,356.371,239.379,356.846,239.434,357.324z"/>
	<path style="fill:#E69629;" d="M242.33,370.579c-0.2-0.617-0.388-1.246-0.573-1.873C241.942,369.334,242.131,369.96,242.33,370.579
		z"/>
	<path style="fill:#E69629;" d="M239.102,353.7c-0.028-0.396-0.064-0.787-0.082-1.182
		C239.039,352.913,239.076,353.304,239.102,353.7z"/>
	<path style="fill:#E69629;" d="M243.706,374.414c2.928,7.492,7.111,14.356,12.294,20.336l0,0
		C250.818,388.772,246.638,381.903,243.706,374.414z"/>
</g>
<path style="fill:#DD512A;" d="M156.703,279.273c-12.853,0-23.273,10.42-23.273,23.273s10.42,23.273,23.273,23.273h82.23H256
	v-46.545H156.703z"/>
</svg>